<svg width="58" height="53" viewBox="0 0 58 53" fill="none" xmlns="http://www.w3.org/2000/svg">
<path d="M53.5 1H4.5C3.57174 1 2.6815 1.44777 2.02513 2.2448C1.36875 3.04183 1 4.12283 1 5.25V47.75C1 48.8772 1.36875 49.9582 2.02513 50.7552C2.6815 51.5522 3.57174 52 4.5 52H53.5C54.4283 52 55.3185 51.5522 55.9749 50.7552C56.6313 49.9582 57 48.8772 57 47.75V5.25C57 4.12283 56.6313 3.04183 55.9749 2.2448C55.3185 1.44777 54.4283 1 53.5 1V1ZM50.805 47.75H7.405L19.655 32.365L17.135 29.4113L4.5 45.285V8.48L26.2525 34.7662C26.9083 35.5578 27.7954 36.0021 28.72 36.0021C29.6447 36.0021 30.5317 35.5578 31.1875 34.7662L53.5 7.82125V45.0087L40.62 29.3688L38.1525 32.365L50.805 47.75ZM6.7925 5.25H50.665L28.72 31.7487L6.7925 5.25Z" fill="#B1C3CE" stroke="#B1C3CE" stroke-width="1.2"/>
</svg>
