<svg width="59" height="56" viewBox="0 0 59 56" fill="none" xmlns="http://www.w3.org/2000/svg">
<path d="M29.4963 0C21.4778 0 20.4785 0.03675 17.3405 0.16275C14.1895 0.30975 12.0581 0.7735 10.1775 1.4665C8.20923 2.17179 6.42669 3.27603 4.95416 4.70225C3.44734 6.09664 2.28329 7.78948 1.54506 9.66C0.814937 11.445 0.326344 13.468 0.171469 16.4587C0.0295 19.439 0 20.3857 0 27.9965C0 35.6073 0.0387188 36.5557 0.171469 39.5342C0.326344 42.5163 0.814937 44.548 1.54506 46.333C2.28813 48.2012 3.45153 49.8931 4.95416 51.2907C6.42325 52.721 8.20677 53.8258 10.1775 54.5265C12.0581 55.2108 14.1987 55.6833 17.3405 55.8302C20.4804 55.965 21.4778 55.993 29.4963 55.993C37.5148 55.993 38.5141 55.9562 41.6522 55.8302C44.7939 55.6833 46.9345 55.209 48.8151 54.5265C50.7834 53.8212 52.5659 52.717 54.0385 51.2907C55.5472 49.8979 56.7116 48.2046 57.4476 46.333C58.1685 44.548 58.6663 42.5163 58.8212 39.5342C58.9631 36.554 58.9926 35.6073 58.9926 27.9965C58.9926 20.3857 58.9539 19.4373 58.8212 16.4587C58.6663 13.4767 58.1666 11.4345 57.4476 9.66C56.7045 7.79181 55.5411 6.09991 54.0385 4.70225C52.571 3.27021 50.787 2.16506 48.8151 1.4665C46.9345 0.7735 44.7939 0.30975 41.6522 0.16275C38.5122 0.028 37.5148 0 29.4963 0ZM29.4963 5.04C37.371 5.04 38.3113 5.07675 41.4235 5.20275C44.2942 5.3305 45.8577 5.7855 46.8958 6.1705C48.1791 6.62012 49.3406 7.33574 50.2957 8.26525C51.2733 9.16795 52.0244 10.2679 52.4934 11.4835C52.899 12.4688 53.3784 13.9527 53.513 16.6775C53.6457 19.6315 53.6845 20.5257 53.6845 27.9982C53.6845 35.4707 53.6457 36.365 53.5019 39.319C53.3471 42.0438 52.8677 43.5278 52.4639 44.513C51.9052 45.8273 51.2821 46.746 50.2532 47.74C49.2949 48.6637 48.1342 49.3759 46.8534 49.826C45.8282 50.211 44.2426 50.666 41.3608 50.7938C38.232 50.9198 37.3101 50.9565 29.4152 50.9565C21.5202 50.9565 20.6002 50.9198 17.4677 50.7832C14.597 50.6362 13.0132 50.1812 11.9752 49.798C10.5739 49.2677 9.61331 48.6763 8.5845 47.6997C7.54647 46.7145 6.88641 45.7765 6.37753 44.4728C5.96453 43.4998 5.49253 41.9948 5.3395 39.2595C5.23441 36.3247 5.18462 35.4147 5.18462 27.9563C5.18462 20.5013 5.23441 19.5895 5.3395 16.618C5.49253 13.8828 5.96453 12.3813 6.37753 11.4048C6.88641 10.073 7.54831 9.163 8.5845 8.17775C9.61147 7.203 10.5739 6.573 11.9752 6.0795C13.0132 5.69625 14.5583 5.24125 17.44 5.10475C20.5689 4.998 21.4907 4.9595 29.3746 4.9595L29.4963 5.04ZM29.4963 13.6273C27.5075 13.6266 25.5381 13.9979 23.7006 14.7199C21.8631 15.442 20.1934 16.5006 18.7872 17.8354C17.3809 19.1702 16.2655 20.7549 15.5048 22.499C14.744 24.2431 14.3529 26.1124 14.3536 28C14.3529 29.8876 14.744 31.7569 15.5048 33.501C16.2655 35.2451 17.3809 36.8298 18.7872 38.1646C20.1934 39.4994 21.8631 40.558 23.7006 41.2801C25.5381 42.0021 27.5075 42.3734 29.4963 42.3727C31.4851 42.3734 33.4545 42.0021 35.292 41.2801C37.1296 40.558 38.7992 39.4994 40.2054 38.1646C41.6117 36.8298 42.7271 35.2451 43.4878 33.501C44.2486 31.7569 44.6398 29.8876 44.639 28C44.6398 26.1124 44.2486 24.2431 43.4878 22.499C42.7271 20.7549 41.6117 19.1702 40.2054 17.8354C38.7992 16.5006 37.1296 15.442 35.292 14.7199C33.4545 13.9979 31.4851 13.6266 29.4963 13.6273ZM29.4963 37.3327C24.0609 37.3327 19.6636 33.159 19.6636 28C19.6636 22.841 24.0609 18.6672 29.4963 18.6672C34.9317 18.6672 39.329 22.841 39.329 28C39.329 33.159 34.9317 37.3327 29.4963 37.3327ZM48.7893 13.0533C48.7883 13.9452 48.4144 14.8002 47.7495 15.4306C47.0847 16.0609 46.1835 16.415 45.2438 16.415C44.7791 16.415 44.3191 16.3281 43.8898 16.1594C43.4605 15.9906 43.0705 15.7432 42.7419 15.4314C42.4134 15.1195 42.1528 14.7493 41.9749 14.3419C41.7971 13.9345 41.7056 13.4978 41.7056 13.0568C41.7056 12.6157 41.7971 12.179 41.9749 11.7716C42.1528 11.3642 42.4134 10.994 42.7419 10.6821C43.0705 10.3703 43.4605 10.1229 43.8898 9.95413C44.3191 9.78536 44.7791 9.6985 45.2438 9.6985C47.1926 9.6985 48.7893 11.2035 48.7893 13.0533Z" fill="#B1C3CE"/>
</svg>
