<svg width="40" height="40" viewBox="-2 0 40 40" fill="none" xmlns="http://www.w3.org/2000/svg">
<path fill-rule="evenodd" clip-rule="evenodd" d="M15.58 40.202L15.72 40.282L15.776 40.314C15.9981 40.4341 16.2465 40.497 16.499 40.497C16.7515 40.497 16.9999 40.4341 17.222 40.314L17.278 40.284L17.42 40.202C18.2022 39.7382 18.9655 39.2431 19.708 38.718C21.6301 37.361 23.4261 35.8335 25.074 34.154C28.962 30.174 33 24.194 33 16.5C33 12.1239 31.2616 7.92709 28.1673 4.83274C25.0729 1.73839 20.8761 0 16.5 0C12.1239 0 7.92709 1.73839 4.83274 4.83274C1.73839 7.92709 0 12.1239 0 16.5C0 24.192 4.04 30.174 7.926 34.154C9.57329 35.8334 11.3685 37.3609 13.29 38.718C14.0331 39.2432 14.7971 39.7382 15.58 40.202ZM16.5 22.5C18.0913 22.5 19.6174 21.8679 20.7426 20.7426C21.8679 19.6174 22.5 18.0913 22.5 16.5C22.5 14.9087 21.8679 13.3826 20.7426 12.2574C19.6174 11.1321 18.0913 10.5 16.5 10.5C14.9087 10.5 13.3826 11.1321 12.2574 12.2574C11.1321 13.3826 10.5 14.9087 10.5 16.5C10.5 18.0913 11.1321 19.6174 12.2574 20.7426C13.3826 21.8679 14.9087 22.5 16.5 22.5Z" fill="#B1C3CE"/>
</svg>
