<svg width="62" height="60" viewBox="0 0 62 60" fill="none" xmlns="http://www.w3.org/2000/svg">
<path d="M26.9517 14.45L17.4794 3.90716C16.3874 2.69224 14.3854 2.69764 13.117 3.92336L5.32744 11.4478C3.00905 13.686 2.34545 17.0095 3.68665 19.6742C11.6991 35.6707 25.0787 48.5897 41.6572 56.338C44.418 57.6312 47.862 56.9914 50.1804 54.7532L58.0428 47.1586C59.3167 45.9301 59.3195 43.989 58.0484 42.936L47.0724 33.8511C45.9244 32.9007 44.1408 33.0249 42.99 34.1373L39.1709 37.8252C38.9753 38.0228 38.718 38.1531 38.4382 38.196C38.1585 38.2389 37.8719 38.1921 37.6225 38.0628C31.3797 34.5965 26.2013 29.5967 22.6145 23.5728C22.4802 23.3318 22.4316 23.055 22.4761 22.7849C22.5206 22.5147 22.6558 22.266 22.8609 22.0771L26.6689 18.4026C27.8225 17.2849 27.9485 15.557 26.9517 14.4473V14.45Z" stroke="#B1C3CE" stroke-width="5" stroke-linecap="round" stroke-linejoin="round"/>
</svg>
